<svg width="39" height="39" viewBox="0 0 39 39" fill="none" xmlns="http://www.w3.org/2000/svg">
<rect x="5.8" y="5.8" width="27.4" height="27.4" rx="1.2" fill="white" stroke="#306CFE" stroke-width="1.6"/>
<path d="M31.6875 5.17969H27.7266V3.65625C27.7266 3.41383 27.6303 3.18133 27.4588 3.00991C27.2874 2.83849 27.0549 2.74219 26.8125 2.74219C26.5701 2.74219 26.3376 2.83849 26.1662 3.00991C25.9947 3.18133 25.8984 3.41383 25.8984 3.65625V5.17969H13.1016V3.65625C13.1016 3.41383 13.0053 3.18133 12.8338 3.00991C12.6624 2.83849 12.4299 2.74219 12.1875 2.74219C11.9451 2.74219 11.7126 2.83849 11.5412 3.00991C11.3697 3.18133 11.2734 3.41383 11.2734 3.65625V5.17969H7.3125C6.74684 5.17969 6.20435 5.40439 5.80437 5.80437C5.40439 6.20435 5.17969 6.74684 5.17969 7.3125V31.6875C5.17969 32.2532 5.40439 32.7956 5.80437 33.1956C6.20435 33.5956 6.74684 33.8203 7.3125 33.8203H31.6875C32.2532 33.8203 32.7956 33.5956 33.1956 33.1956C33.5956 32.7956 33.8203 32.2532 33.8203 31.6875V7.3125C33.8203 6.74684 33.5956 6.20435 33.1956 5.80437C32.7956 5.40439 32.2532 5.17969 31.6875 5.17969ZM7.3125 7.00781H11.2734V8.53125C11.2734 8.77367 11.3697 9.00617 11.5412 9.17759C11.7126 9.34901 11.9451 9.44531 12.1875 9.44531C12.4299 9.44531 12.6624 9.34901 12.8338 9.17759C13.0053 9.00617 13.1016 8.77367 13.1016 8.53125V7.00781H25.8984V8.53125C25.8984 8.77367 25.9947 9.00617 26.1662 9.17759C26.3376 9.34901 26.5701 9.44531 26.8125 9.44531C27.0549 9.44531 27.2874 9.34901 27.4588 9.17759C27.6303 9.00617 27.7266 8.77367 27.7266 8.53125V7.00781H31.6875C31.7683 7.00781 31.8458 7.03991 31.9029 7.09705C31.9601 7.15419 31.9922 7.23169 31.9922 7.3125V12.4922H7.00781V7.3125C7.00781 7.23169 7.03991 7.15419 7.09705 7.09705C7.15419 7.03991 7.23169 7.00781 7.3125 7.00781ZM31.6875 31.9922H7.3125C7.23169 31.9922 7.15419 31.9601 7.09705 31.9029C7.03991 31.8458 7.00781 31.7683 7.00781 31.6875V14.3203H31.9922V31.6875C31.9922 31.7683 31.9601 31.8458 31.9029 31.9029C31.8458 31.9601 31.7683 31.9922 31.6875 31.9922ZM21.0234 20.1094C21.0234 20.4107 20.9341 20.7052 20.7667 20.9558C20.5993 21.2063 20.3614 21.4015 20.083 21.5168C19.8046 21.6322 19.4983 21.6623 19.2028 21.6035C18.9073 21.5448 18.6358 21.3997 18.4228 21.1866C18.2097 20.9736 18.0646 20.7021 18.0058 20.4066C17.9471 20.1111 17.9772 19.8048 18.0925 19.5264C18.2078 19.248 18.4031 19.0101 18.6536 18.8427C18.9042 18.6753 19.1987 18.5859 19.5 18.5859C19.904 18.5859 20.2915 18.7464 20.5772 19.0321C20.8629 19.3178 21.0234 19.7053 21.0234 20.1094ZM27.7266 20.1094C27.7266 20.4107 27.6372 20.7052 27.4698 20.9558C27.3024 21.2063 27.0645 21.4015 26.7861 21.5168C26.5077 21.6322 26.2014 21.6623 25.9059 21.6035C25.6104 21.5448 25.3389 21.3997 25.1259 21.1866C24.9128 20.9736 24.7677 20.7021 24.709 20.4066C24.6502 20.1111 24.6803 19.8048 24.7957 19.5264C24.911 19.248 25.1062 19.0101 25.3567 18.8427C25.6073 18.6753 25.9018 18.5859 26.2031 18.5859C26.6072 18.5859 26.9947 18.7464 27.2804 19.0321C27.5661 19.3178 27.7266 19.7053 27.7266 20.1094ZM14.3203 26.2031C14.3203 26.5044 14.231 26.799 14.0636 27.0495C13.8962 27.3 13.6582 27.4953 13.3799 27.6106C13.1015 27.7259 12.7952 27.7561 12.4997 27.6973C12.2041 27.6385 11.9327 27.4934 11.7196 27.2804C11.5066 27.0673 11.3615 26.7958 11.3027 26.5003C11.2439 26.2048 11.2741 25.8985 11.3894 25.6201C11.5047 25.3418 11.7 25.1038 11.9505 24.9364C12.201 24.769 12.4956 24.6797 12.7969 24.6797C13.2009 24.6797 13.5884 24.8402 13.8741 25.1259C14.1598 25.4116 14.3203 25.7991 14.3203 26.2031ZM21.0234 26.2031C21.0234 26.5044 20.9341 26.799 20.7667 27.0495C20.5993 27.3 20.3614 27.4953 20.083 27.6106C19.8046 27.7259 19.4983 27.7561 19.2028 27.6973C18.9073 27.6385 18.6358 27.4934 18.4228 27.2804C18.2097 27.0673 18.0646 26.7958 18.0058 26.5003C17.9471 26.2048 17.9772 25.8985 18.0925 25.6201C18.2078 25.3418 18.4031 25.1038 18.6536 24.9364C18.9042 24.769 19.1987 24.6797 19.5 24.6797C19.904 24.6797 20.2915 24.8402 20.5772 25.1259C20.8629 25.4116 21.0234 25.7991 21.0234 26.2031ZM27.7266 26.2031C27.7266 26.5044 27.6372 26.799 27.4698 27.0495C27.3024 27.3 27.0645 27.4953 26.7861 27.6106C26.5077 27.7259 26.2014 27.7561 25.9059 27.6973C25.6104 27.6385 25.3389 27.4934 25.1259 27.2804C24.9128 27.0673 24.7677 26.7958 24.709 26.5003C24.6502 26.2048 24.6803 25.8985 24.7957 25.6201C24.911 25.3418 25.1062 25.1038 25.3567 24.9364C25.6073 24.769 25.9018 24.6797 26.2031 24.6797C26.6072 24.6797 26.9947 24.8402 27.2804 25.1259C27.5661 25.4116 27.7266 25.7991 27.7266 26.2031Z" fill="#306CFE"/>
<path d="M7.41663 6.21663H31.5833C32.246 6.21663 32.7833 6.75388 32.7833 7.41663V15.45H6.21663V7.41662C6.21663 6.75388 6.75388 6.21663 7.41663 6.21663Z" fill="white" stroke="#787878" stroke-width="1.6"/>
</svg>
