<svg width="39" height="40" viewBox="0 0 39 40" fill="none" xmlns="http://www.w3.org/2000/svg">
<g filter="url(#filter0_d_590_2591)">
<rect x="4" width="31" height="32" rx="2" fill="white"/>
<rect x="4.5" y="0.5" width="30" height="31" rx="1.5" stroke="#C5C5C5"/>
</g>
<path d="M13.75 9.75H12.5C11.837 9.75 11.2011 10.0134 10.7322 10.4822C10.2634 10.9511 10 11.587 10 12.25V23.5C10 24.163 10.2634 24.7989 10.7322 25.2678C11.2011 25.7366 11.837 26 12.5 26H23.75C24.413 26 25.0489 25.7366 25.5178 25.2678C25.9866 24.7989 26.25 24.163 26.25 23.5V22.25" stroke="#306CFE" stroke-width="2" stroke-linecap="round" stroke-linejoin="round"/>
<path d="M25 7.25013L28.75 11.0001M30.4812 9.23138C30.9736 8.73908 31.2501 8.07136 31.2501 7.37513C31.2501 6.6789 30.9736 6.01119 30.4812 5.51888C29.9889 5.02658 29.3212 4.75 28.625 4.75C27.9288 4.75 27.2611 5.02658 26.7688 5.51888L16.25 16.0001V19.7501H20L30.4812 9.23138Z" stroke="#787878" stroke-width="2" stroke-linecap="round" stroke-linejoin="round"/>
<defs>
<filter id="filter0_d_590_2591" x="0" y="0" width="39" height="40" filterUnits="userSpaceOnUse" color-interpolation-filters="sRGB">
<feFlood flood-opacity="0" result="BackgroundImageFix"/>
<feColorMatrix in="SourceAlpha" type="matrix" values="0 0 0 0 0 0 0 0 0 0 0 0 0 0 0 0 0 0 127 0" result="hardAlpha"/>
<feOffset dy="4"/>
<feGaussianBlur stdDeviation="2"/>
<feComposite in2="hardAlpha" operator="out"/>
<feColorMatrix type="matrix" values="0 0 0 0 0 0 0 0 0 0 0 0 0 0 0 0 0 0 0.25 0"/>
<feBlend mode="normal" in2="BackgroundImageFix" result="effect1_dropShadow_590_2591"/>
<feBlend mode="normal" in="SourceGraphic" in2="effect1_dropShadow_590_2591" result="shape"/>
</filter>
</defs>
</svg>
